<svg xmlns="http://www.w3.org/2000/svg" width="32" height="32" viewBox="0 0 32 32" fill="none">
  <path d="M5.66667 2.57925e-06H26.3333C27.0777 -0.000716969 27.8149 0.149123 28.5027 0.440947C29.1905 0.73277 29.8155 1.16085 30.3418 1.70068C30.8682 2.24052 31.2856 2.88151 31.5701 3.58697C31.8546 4.29244 32.0007 5.04853 32 5.81197V26.188C32.0007 26.9515 31.8546 27.7076 31.5701 28.413C31.2856 29.1185 30.8682 29.7595 30.3418 30.2993C29.8155 30.8392 29.1905 31.2672 28.5027 31.5591C27.8149 31.8509 27.0777 32.0007 26.3333 32H5.66667C4.92231 32.0007 4.18513 31.8509 3.4973 31.5591C2.80947 31.2672 2.1845 30.8392 1.65817 30.2993C1.13183 29.7595 0.714451 29.1185 0.429923 28.413C0.145395 27.7076 -0.000699045 26.9515 2.51477e-06 26.188V5.81197C-0.000699045 5.04853 0.145395 4.29244 0.429923 3.58697C0.714451 2.88151 1.13183 2.24052 1.65817 1.70068C2.1845 1.16085 2.80947 0.73277 3.4973 0.440947C4.18513 0.149123 4.92231 -0.000716969 5.66667 2.57925e-06Z" fill="#00be0c"/>
  <path d="M15.5064 19.2H10.5464L9.53309 22.4137C9.52177 22.4723 9.4895 22.5244 9.44263 22.5598C9.39575 22.5952 9.33766 22.6114 9.27976 22.6051H6.77309C6.62642 22.6051 6.58642 22.5231 6.62642 22.359L10.9198 9.68207C10.9598 9.54531 10.9998 9.39489 11.0531 9.23078C11.1068 8.9377 11.1335 8.6401 11.1331 8.34189C11.1291 8.30765 11.1379 8.27311 11.1576 8.24522C11.1774 8.21732 11.2068 8.19812 11.2398 8.19147H14.6931C14.7998 8.19147 14.8531 8.23249 14.8664 8.30087L19.7331 22.3863C19.7731 22.5368 19.7331 22.6051 19.5998 22.6051H16.8131C16.766 22.6098 16.7187 22.5973 16.6797 22.5698C16.6407 22.5422 16.6124 22.5015 16.5998 22.4547L15.5064 19.2ZM11.3198 16.4239H14.7064C14.6264 16.1368 14.5198 15.7949 14.3998 15.4393C14.2798 15.0838 14.1598 14.6735 14.0398 14.2633C13.9198 13.853 13.7864 13.4291 13.6531 13.0051C13.5198 12.5812 13.3998 12.1846 13.2931 11.788C13.1864 11.3915 13.0931 11.0496 12.9998 10.7214H12.9731C12.8533 11.3174 12.7019 11.9063 12.5198 12.4855C12.3198 13.1419 12.1198 13.8257 11.9064 14.5094C11.7198 15.2069 11.5198 15.8496 11.3198 16.4239Z" fill="#353A33"/>
  <path d="M22.6395 10.5299C22.4207 10.5349 22.203 10.4951 21.9993 10.4129C21.7956 10.3307 21.6098 10.2078 21.4529 10.0513C21.1474 9.70873 20.9847 9.25719 20.9995 8.79319C20.9917 8.56712 21.0303 8.34188 21.113 8.13217C21.1958 7.92246 21.3206 7.73298 21.4795 7.5761C21.8 7.26542 22.2252 7.09391 22.6662 7.09747C23.1862 7.09747 23.5862 7.26157 23.8795 7.5761C24.1749 7.90769 24.3327 8.34425 24.3195 8.79319C24.3277 9.02424 24.2906 9.25462 24.2104 9.47072C24.1303 9.68681 24.0087 9.88423 23.8529 10.0513C23.6958 10.2154 23.5062 10.3431 23.2968 10.4257C23.0875 10.5082 22.8634 10.5438 22.6395 10.5299ZM21.1462 22.4V11.8701C21.1462 11.7334 21.1995 11.6787 21.3195 11.6787H23.9595C24.0795 11.6787 24.1329 11.747 24.1329 11.8701V22.4C24.1329 22.5505 24.0795 22.6188 23.9595 22.6188H21.3462C21.3182 22.6212 21.29 22.6171 21.2638 22.6067C21.2375 22.5963 21.2139 22.58 21.1947 22.559C21.1755 22.5379 21.1611 22.5127 21.1527 22.4852C21.1443 22.4577 21.1421 22.4286 21.1462 22.4Z" fill="#353A33"/>
</svg>