<svg xmlns="http://www.w3.org/2000/svg" width="32" height="32" viewBox="0 0 32 32" fill="none">
  <path d="M5.66667 2.57925e-06H26.3333C27.0777 -0.000716969 27.8149 0.149123 28.5027 0.440947C29.1905 0.73277 29.8155 1.16085 30.3418 1.70068C30.8682 2.24052 31.2856 2.88151 31.5701 3.58697C31.8546 4.29244 32.0007 5.04853 32 5.81197V26.188C32.0007 26.9515 31.8546 27.7076 31.5701 28.413C31.2856 29.1185 30.8682 29.7595 30.3418 30.2993C29.8155 30.8392 29.1905 31.2672 28.5027 31.5591C27.8149 31.8509 27.0777 32.0007 26.3333 32H5.66667C4.92231 32.0007 4.18513 31.8509 3.4973 31.5591C2.80947 31.2672 2.1845 30.8392 1.65817 30.2993C1.13183 29.7595 0.714451 29.1185 0.429923 28.413C0.145395 27.7076 -0.000699045 26.9515 2.51477e-06 26.188V5.81197C-0.000699045 5.04853 0.145395 4.29244 0.429923 3.58697C0.714451 2.88151 1.13183 2.24052 1.65817 1.70068C2.1845 1.16085 2.80947 0.73277 3.4973 0.440947C4.18513 0.149123 4.92231 -0.000716969 5.66667 2.57925e-06Z" fill="#00be0c"/>
  <path d="M11.6267 8.36924V22.4C11.6267 22.5504 11.56 22.6188 11.44 22.6188H8.82665C8.70665 22.6188 8.65332 22.5504 8.65332 22.4V8.36924C8.65332 8.24616 8.71999 8.19146 8.83999 8.19146H11.44C11.4602 8.18819 11.4808 8.18918 11.5007 8.19437C11.5205 8.19955 11.5391 8.20882 11.5553 8.22162C11.5715 8.23442 11.585 8.25047 11.595 8.26879C11.605 8.28712 11.6112 8.30734 11.6133 8.32821C11.6184 8.33362 11.6222 8.3401 11.6245 8.34719C11.6268 8.35429 11.6275 8.36181 11.6267 8.36924Z" fill="#353A33"/>
  <path d="M19.3067 22.8376C18.3184 22.8543 17.3389 22.644 16.4401 22.2222C15.6037 21.8211 14.9028 21.1737 14.4267 20.3624C13.9334 19.5282 13.6934 18.4889 13.6934 17.2445C13.6799 16.2324 13.9332 15.2355 14.4267 14.359C14.9327 13.4682 15.6656 12.7354 16.5467 12.2393C17.4801 11.706 18.6001 11.4462 19.9201 11.4462C20.0136 11.4451 20.1071 11.4496 20.2001 11.4598C20.3201 11.4735 20.4534 11.4735 20.6134 11.4872V7.16582C20.6134 7.0701 20.6534 7.01539 20.7467 7.01539H23.4534C23.4833 7.01125 23.5136 7.01879 23.5383 7.03653C23.563 7.05427 23.5803 7.0809 23.5867 7.11112V20.1573C23.5867 20.4034 23.6001 20.6769 23.6134 20.9778C23.6267 21.2786 23.6534 21.5385 23.6667 21.771C23.6696 21.8171 23.6582 21.8631 23.6343 21.9023C23.6104 21.9416 23.5751 21.9721 23.5334 21.9898C22.835 22.2908 22.106 22.511 21.3601 22.6462C20.6825 22.7721 19.9953 22.8362 19.3067 22.8376ZM20.6134 20.1026V14.0855C20.4947 14.0561 20.3745 14.0333 20.2534 14.0171C20.1067 14.0034 19.9601 13.9898 19.8134 13.9898C19.2907 13.9837 18.7742 14.1056 18.3067 14.3453C17.8511 14.5782 17.461 14.9265 17.1734 15.3573C16.8801 15.7949 16.7334 16.3829 16.7334 17.094C16.7218 17.574 16.7987 18.0519 16.9601 18.5026C17.089 18.867 17.2937 19.1983 17.5601 19.4735C17.8171 19.7251 18.1274 19.9123 18.4667 20.0205C18.8239 20.1405 19.1976 20.2005 19.5734 20.1983C19.7734 20.1983 19.9601 20.1846 20.1334 20.1709C20.2963 20.1838 20.46 20.1605 20.6134 20.1026Z" fill="#353A33"/>
</svg>