<svg xmlns="http://www.w3.org/2000/svg" width="32" height="32" viewBox="0 0 32 32" fill="none">
  <path d="M5.66667 2.57925e-06H26.3333C27.0777 -0.000716969 27.8149 0.149123 28.5027 0.440947C29.1905 0.73277 29.8155 1.16085 30.3418 1.70068C30.8682 2.24052 31.2856 2.88151 31.5701 3.58697C31.8546 4.29244 32.0007 5.04853 32 5.81197V26.188C32.0007 26.9515 31.8546 27.7076 31.5701 28.413C31.2856 29.1185 30.8682 29.7595 30.3418 30.2993C29.8155 30.8392 29.1905 31.2672 28.5027 31.5591C27.8149 31.8509 27.0777 32.0007 26.3333 32H5.66667C4.92231 32.0007 4.18513 31.8509 3.4973 31.5591C2.80947 31.2672 2.1845 30.8392 1.65817 30.2993C1.13183 29.7595 0.714451 29.1185 0.429923 28.413C0.145395 27.7076 -0.000699045 26.9515 2.51477e-06 26.188V5.81197C-0.000699045 5.04853 0.145395 4.29244 0.429923 3.58697C0.714451 2.88151 1.13183 2.24052 1.65817 1.70068C2.1845 1.16085 2.80947 0.73277 3.4973 0.440947C4.18513 0.149123 4.92231 -0.000716969 5.66667 2.57925e-06Z" fill="#00be0c"/>
  <path d="M16.8 22.6188H8.34667C8.2 22.6188 8.13334 22.5368 8.13334 22.3727V8.39659C8.13036 8.37409 8.13182 8.35121 8.13763 8.32929C8.14344 8.30738 8.15349 8.28689 8.16716 8.26903C8.18084 8.25118 8.19788 8.23632 8.21726 8.22534C8.23665 8.21437 8.25798 8.2075 8.28 8.20514H10.9467C10.9633 8.20203 10.9805 8.20242 10.997 8.20629C11.0135 8.21016 11.0291 8.21742 11.0428 8.22765C11.0565 8.23788 11.0681 8.25085 11.0768 8.26579C11.0854 8.28072 11.0911 8.29731 11.0933 8.31454V19.8427H17.2533C17.3867 19.8427 17.4267 19.9111 17.4 20.0342L17.0133 22.4137C17.0113 22.4451 17.0031 22.4758 16.9894 22.504C16.9756 22.5321 16.9566 22.5572 16.9333 22.5778C16.8942 22.6056 16.8476 22.6199 16.8 22.6188Z" fill="#353A33"/>
  <path d="M18.9333 11.6787H21.2667C21.3299 11.6802 21.391 11.7022 21.4412 11.7415C21.4915 11.7808 21.5284 11.8354 21.5467 11.8975C21.6018 11.9942 21.638 12.101 21.6533 12.212C21.68 12.3487 21.7067 12.4992 21.72 12.6359C21.7333 12.7727 21.7467 12.9505 21.7467 13.1282C22.147 12.6489 22.6308 12.2501 23.1733 11.9522C23.7825 11.6135 24.4673 11.4438 25.16 11.4599C25.1819 11.4568 25.2043 11.4583 25.2256 11.4643C25.247 11.4702 25.267 11.4805 25.2844 11.4945C25.3018 11.5086 25.3163 11.5261 25.327 11.5459C25.3377 11.5658 25.3444 11.5877 25.3467 11.6103V14.3316C25.3467 14.441 25.28 14.4821 25.1333 14.4821C24.2692 14.429 23.4052 14.5884 22.6133 14.947C22.3433 15.0655 22.0986 15.2375 21.8933 15.453V22.4274C21.8933 22.5641 21.84 22.6188 21.72 22.6188H19.12C19.0954 22.6231 19.0702 22.6222 19.046 22.6161C19.0218 22.6101 18.999 22.5991 18.979 22.5837C18.9591 22.5684 18.9424 22.549 18.9299 22.5268C18.9175 22.5047 18.9096 22.4801 18.9067 22.4547V14.824C18.9067 14.4957 18.9067 14.1539 18.8933 13.7983C18.88 13.4428 18.88 13.0872 18.8667 12.7316C18.8533 12.4308 18.8267 12.1299 18.7867 11.8291C18.7831 11.8129 18.7827 11.7962 18.7855 11.7799C18.7883 11.7636 18.7942 11.748 18.8029 11.734C18.8115 11.72 18.8228 11.7079 18.8361 11.6984C18.8493 11.6889 18.8642 11.6822 18.88 11.6787C18.8933 11.665 18.9067 11.665 18.9333 11.6787Z" fill="#353A33"/>
</svg>