<svg xmlns="http://www.w3.org/2000/svg" width="32" height="32" viewBox="0 0 32 32" fill="none">
  <path d="M5.66667 2.57925e-06H26.3333C27.0777 -0.000716969 27.8149 0.149123 28.5027 0.440947C29.1905 0.73277 29.8155 1.16085 30.3418 1.70068C30.8682 2.24052 31.2856 2.88151 31.5701 3.58697C31.8546 4.29244 32.0007 5.04853 32 5.81197V26.188C32.0007 26.9515 31.8546 27.7076 31.5701 28.413C31.2856 29.1185 30.8682 29.7595 30.3418 30.2993C29.8155 30.8392 29.1905 31.2672 28.5027 31.5591C27.8149 31.8509 27.0777 32.0007 26.3333 32H5.66667C4.92231 32.0007 4.18513 31.8509 3.4973 31.5591C2.80947 31.2672 2.1845 30.8392 1.65817 30.2993C1.13183 29.7595 0.714451 29.1185 0.429923 28.413C0.145395 27.7076 -0.000699045 26.9515 2.51477e-06 26.188V5.81197C-0.000699045 5.04853 0.145395 4.29244 0.429923 3.58697C0.714451 2.88151 1.13183 2.24052 1.65817 1.70068C2.1845 1.16085 2.80947 0.73277 3.4973 0.440947C4.18513 0.149123 4.92231 -0.000716969 5.66667 2.57925e-06Z" fill="#00be0c"/>
  <path d="M7.2002 22.4411V8.36926C7.2002 8.27353 7.2402 8.21883 7.33353 8.21883C7.5602 8.21883 7.77353 8.21883 8.0802 8.20516C8.38686 8.19148 8.73353 8.19148 9.09353 8.17781C9.45353 8.16413 9.8402 8.16413 10.2535 8.15045C10.6669 8.13678 11.0669 8.13678 11.4669 8.13678C12.5602 8.13678 13.4669 8.27353 14.2135 8.56071C14.8829 8.79384 15.4932 9.1769 16.0002 9.68208C16.4298 10.1242 16.7618 10.6558 16.9735 11.2411C17.1754 11.811 17.2791 12.4125 17.2802 13.0188C17.2802 14.1949 17.0135 15.1658 16.4802 15.9317C15.9444 16.6964 15.1963 17.2778 14.3335 17.6C13.4269 17.9419 12.4269 18.065 11.3335 18.065C11.0135 18.065 10.8002 18.065 10.6669 18.0513C10.5335 18.0376 10.3469 18.0376 10.0935 18.0376V22.4274C10.0965 22.4499 10.095 22.4728 10.0892 22.4947C10.0834 22.5166 10.0734 22.5371 10.0597 22.5549C10.046 22.5728 10.029 22.5877 10.0096 22.5986C9.99022 22.6096 9.96888 22.6165 9.94686 22.6188H7.3602C7.25353 22.6188 7.2002 22.5641 7.2002 22.4411ZM10.1069 10.8581V15.453C10.2935 15.4667 10.4669 15.4804 10.6269 15.4804H11.3335C11.854 15.481 12.3714 15.398 12.8669 15.2342C13.2919 15.106 13.6717 14.8543 13.9602 14.5094C14.2402 14.1675 14.3735 13.7026 14.3735 13.1009C14.3861 12.6735 14.2797 12.2514 14.0669 11.8838C13.8445 11.5287 13.5176 11.2557 13.1335 11.1043C12.633 10.9032 12.0974 10.8101 11.5602 10.8308C11.2135 10.8308 10.9069 10.8308 10.6535 10.8445C10.4713 10.8323 10.2883 10.8368 10.1069 10.8581Z" fill="#353A33"/>
  <path d="M25.6003 14.6189C25.1977 14.4014 24.7666 14.2448 24.3203 14.1539C23.8301 14.04 23.3295 13.9804 22.827 13.9761C22.5571 13.9666 22.2874 13.9989 22.027 14.0718C21.8609 14.1073 21.7136 14.2048 21.6136 14.3454C21.5463 14.4563 21.5094 14.5839 21.507 14.7146C21.5132 14.8447 21.5599 14.9693 21.6403 15.0701C21.7667 15.2222 21.9206 15.3476 22.0936 15.4394C22.4003 15.6035 22.7203 15.7539 23.0403 15.8907C23.7607 16.1394 24.4499 16.4745 25.0936 16.8889C25.5315 17.1713 25.8936 17.5615 26.147 18.024C26.3612 18.4603 26.4666 18.9442 26.4536 19.4325C26.4644 20.0789 26.2831 20.7133 25.9336 21.2513C25.5617 21.7972 25.0428 22.2202 24.4403 22.4684C23.787 22.7556 22.987 22.906 22.027 22.906C21.4183 22.9086 20.8108 22.849 20.2136 22.7283C19.7434 22.6449 19.286 22.4978 18.8536 22.2907C18.8071 22.2667 18.7685 22.2294 18.7424 22.1832C18.7164 22.1371 18.704 22.0841 18.707 22.0308V19.6513C18.7058 19.628 18.71 19.6046 18.7193 19.5833C18.7286 19.5619 18.7426 19.543 18.7603 19.5283C18.7791 19.517 18.8009 19.5123 18.8225 19.5148C18.8441 19.5172 18.8644 19.5268 18.8803 19.5419C19.3939 19.8525 19.9518 20.0786 20.5336 20.212C21.0474 20.3491 21.5761 20.4181 22.107 20.4171C22.6136 20.4171 22.9736 20.3488 23.2136 20.2257C23.3207 20.175 23.4114 20.094 23.4752 19.9923C23.5389 19.8905 23.5731 19.7723 23.5736 19.6513C23.5736 19.4599 23.467 19.2821 23.2536 19.1043C23.0403 18.9265 22.6003 18.7214 21.947 18.4616C21.2767 18.2194 20.6402 17.8884 20.0536 17.477C19.6358 17.1716 19.2897 16.7745 19.0403 16.3146C18.8275 15.8827 18.7222 15.4035 18.7336 14.9197C18.7356 14.3362 18.8923 13.7642 19.187 13.265C19.5257 12.716 20.0118 12.2791 20.587 12.0069C21.2136 11.6787 22.0003 11.5283 22.947 11.5283C23.5002 11.5284 24.0528 11.5696 24.6003 11.6513C24.994 11.706 25.3793 11.8117 25.747 11.9659C25.8055 11.9872 25.8535 12.0314 25.8803 12.0889C25.8957 12.1423 25.9046 12.1974 25.907 12.253V14.4821C25.9072 14.5087 25.9012 14.5349 25.8897 14.5587C25.8781 14.5825 25.8612 14.6031 25.8403 14.6189C25.7627 14.6475 25.6779 14.6475 25.6003 14.6189Z" fill="#353A33"/>
</svg>